<svg width="64" height="64" viewBox="0 0 64 64" fill="none" xmlns="http://www.w3.org/2000/svg">
<g clip-path="url(#clip0_105_402)">
<path d="M8 0C3.57 0 0 3.565 0 7.995V55.985C0 60.415 3.565 63.98 8 63.98H56C60.43 63.98 64 60.415 64 55.985V7.995C64 3.57 60.43 0 56 0H8Z" fill="#363D52"/>
<path d="M8 0C3.57 0 0 3.565 0 7.995V55.985C0 60.415 3.565 63.98 8 63.98H56C60.43 63.98 64 60.415 64 55.985V7.995C64 3.57 60.43 0 56 0H8ZM8 2H56C59.32 2 62 4.675 62 7.995V55.985C62 59.305 59.325 61.98 56 61.98H8C4.68 61.98 2 59.305 2 55.985V7.995C2 4.675 4.68 2 8 2Z" fill="black" fill-opacity="0.4"/>
<path d="M52.5108 39.9937C52.5108 39.9937 52.4427 39.5757 52.4029 39.5795L44.8173 40.3114C44.2137 40.3696 43.7449 40.851 43.7025 41.4558L43.4941 44.4428L37.6256 44.8614L37.2264 42.1544C37.1375 41.5523 36.6117 41.0984 36.0031 41.0984H27.9969C27.3885 41.0984 26.8627 41.5523 26.7738 42.1544L26.3744 44.8614L20.5059 44.4428L20.2975 41.4558C20.2551 40.8508 19.7863 40.3694 19.1827 40.3112L11.5934 39.5795C11.5542 39.5757 11.5254 39.9942 11.4862 39.9942L11.476 41.6357L17.9034 42.6722L18.1139 45.6858C18.1565 46.2959 18.6488 46.7892 19.2593 46.833L27.3415 47.4095C27.3722 47.4116 27.4023 47.4129 27.4325 47.4129C28.0399 47.4129 28.5649 46.9588 28.6538 46.3567L29.0645 43.5712H34.9357L35.3465 46.3567C35.4351 46.9586 35.9607 47.4127 36.5689 47.4127C36.5987 47.4127 36.6285 47.4116 36.6576 47.4095L44.7409 46.833C45.3512 46.7892 45.8437 46.2959 45.8863 45.6858L46.0965 42.6722L52.5213 41.6311L52.5108 39.9937Z" fill="white"/>
<path d="M11.4862 27.6157V37.5771V38.8423V39.9937C11.5088 39.9939 11.5314 39.9948 11.5539 39.9969L19.1424 40.7286C19.5399 40.7669 19.8515 41.0868 19.8791 41.4852L20.1131 44.835L26.7326 45.3073L27.1886 42.2156C27.2478 41.8148 27.5916 41.5177 27.9971 41.5177H36.0032C36.4085 41.5177 36.7523 41.8148 36.8114 42.2156L37.2674 45.3073L43.8872 44.835L44.1209 41.4852C44.1488 41.0868 44.4601 40.7671 44.8576 40.7286L52.4433 39.9969C52.4657 39.9948 52.4881 39.9939 52.5108 39.9937V39.0061L52.5139 39.005V27.6157C53.5825 26.2705 54.5943 24.7866 55.3696 23.5382C54.1848 21.5213 52.7332 19.719 51.1816 18.0491C49.7425 18.7734 48.3448 19.594 47.0246 20.4672C46.364 19.8106 45.6199 19.2734 44.8891 18.712C44.171 18.1352 43.3618 17.7124 42.5943 17.2197C42.8228 15.518 42.9358 13.8426 42.9813 12.0941C41.0009 11.0975 38.8891 10.4366 36.7529 9.96198C35.9001 11.3954 35.1202 12.9476 34.4409 14.4651C33.6354 14.3305 32.8262 14.2806 32.0159 14.271V14.2697C32.0102 14.2697 32.005 14.271 32.0001 14.271C31.9951 14.271 31.9899 14.2697 31.9848 14.2697V14.271C31.1731 14.2806 30.3644 14.3305 29.5587 14.4651C28.8799 12.9476 28.1004 11.3954 27.2463 9.96198C25.1112 10.4366 22.9992 11.0975 21.019 12.0941C21.0643 13.8426 21.1773 15.518 21.4064 17.2197C20.6374 17.7124 19.8292 18.1352 19.111 18.712C18.3812 19.2734 17.6359 19.8106 16.975 20.4672C15.6549 19.594 14.2575 18.7734 12.8181 18.0491C11.2664 19.719 9.81565 21.5213 8.63049 23.5382C9.5619 25.0002 10.561 26.4697 11.4862 27.6157Z" fill="#478CBF"/>
<path d="M45.703 42.2889L45.468 45.6566C45.4397 46.0625 45.1168 46.3855 44.7109 46.4147L36.6278 46.9914C36.6081 46.9929 36.5884 46.9935 36.5689 46.9935C36.1672 46.9935 35.8207 46.6988 35.7613 46.2954L35.2978 43.1519H28.7024L28.2388 46.2954C28.1766 46.7185 27.7984 47.0227 27.3723 46.9914L19.2892 46.4147C18.8833 46.3855 18.5605 46.0625 18.5322 45.6566L18.2972 42.2889L11.4736 41.6311C11.4768 42.3644 11.4862 43.1678 11.4862 43.3278C11.4862 50.5343 20.6281 53.9982 31.9861 54.038H32H32.014C43.3721 53.9982 52.5108 50.5343 52.5108 43.3278C52.5108 43.1649 52.5207 42.3648 52.524 41.6311L45.703 42.2889Z" fill="#478CBF"/>
<path d="M25.8159 32.6403C25.8159 35.1671 23.7687 37.2139 21.2428 37.2139C18.7182 37.2139 16.6703 35.1671 16.6703 32.6403C16.6703 30.1153 18.7182 28.0695 21.2428 28.0695C23.7687 28.0695 25.8159 30.1153 25.8159 32.6403Z" fill="white"/>
<path d="M24.7156 32.9116C24.7156 34.5876 23.3572 35.9459 21.68 35.9459C20.0036 35.9459 18.6445 34.5876 18.6445 32.9116C18.6445 31.2357 20.0036 29.8761 21.68 29.8761C23.3572 29.8761 24.7156 31.2357 24.7156 32.9116Z" fill="#414042"/>
<path d="M31.9997 37.63C31.1866 37.63 30.5277 37.0308 30.5277 36.2922V32.0822C30.5277 31.3442 31.1866 30.7444 31.9997 30.7444C32.8127 30.7444 33.4731 31.3442 33.4731 32.0822V36.2922C33.4731 37.0308 32.8127 37.63 31.9997 37.63Z" fill="white"/>
<path d="M38.1843 32.6403C38.1843 35.1671 40.2315 37.2139 42.7578 37.2139C45.2822 37.2139 47.3299 35.1671 47.3299 32.6403C47.3299 30.1153 45.2822 28.0695 42.7578 28.0695C40.2315 28.0695 38.1843 30.1153 38.1843 32.6403Z" fill="white"/>
<path d="M39.2849 32.9116C39.2849 34.5876 40.6428 35.9459 42.3188 35.9459C43.9964 35.9459 45.3543 34.5876 45.3543 32.9116C45.3543 31.2357 43.9964 29.8761 42.3188 29.8761C40.6428 29.8761 39.2849 31.2357 39.2849 32.9116Z" fill="#414042"/>
</g>
<defs>
<clipPath id="clip0_105_402">
<rect width="64" height="64" fill="white"/>
</clipPath>
</defs>
</svg>
